# xmcd
#
# Track frame offsets:
#	150
#	16010
#	32468
#	46287
#	68087
#	84710
#	103358
#	119710
#	135113
#	152408
#	169682
#	186857
#
# Disc length: 2760 seconds
#
# Revision: 5
# Processed by: cddbd v1.5.2PL0 Copyright (c) Steve Scherf et al.
# Submitted via: EZCDAudioConverter 8.2.2.1
#
DISCID=910ac60c
DTITLE=ZEZÉ DI CAMARGO and LUCIANO - CAMARGO and LUCIANO [CD 850.246/2-476678) COL
DTITLE=UMBIA
DYEAR=1994
DGENRE=Sertanejo
TTITLE0=QUIEN SOY YO SIN ELLA (QUEM SOU EU SEM ELA) (BY GILMAR SINISTRO)
TTITLE1=DIOS (DEUS) (BY GILMAR SINISTRO)
TTITLE2=CAMBIA DE VIDA (MUDA DE VIDA) (BY GILMAR SINISTRO)
TTITLE3=TUDO DE NOVO (BY GILMAR SINISTRO)
TTITLE4=PENSANDO SOLO EN TI (EM MIM SÓ DÁ VOCÊ) (BY GILMAR SINISTRO)
TTITLE5=FAZ MAIS UMA VEZ COMIGO (BY GILMAR SINISTRO)
TTITLE6=CORAZÓN EN SOLEDAD (CORAÇÃO NA CONTRA-MÃO) (BY GILMAR SINISTRO)
TTITLE7=ENTRE EL Y YO (ENTRE ELE E EU) (BY GILMAR SINISTRO)
TTITLE8=NO PUEDO NEGAR (É O AMOR) (BY GILMAR SINISTRO)
TTITLE9=CORAZÓN EN PEDAZOS (CORAÇÃO ESTÁ EM PEDAÇOS) (BY GILMAR SINISTRO)
TTITLE10=EU SÓ PENSO EM VOCÊ (ALWAYS ON MY MIND) PART. ESP. WILLIE NELSON (BY 
TTITLE10=GILMAR SINISTRO)
TTITLE11=CORAZÓN DE CAMIONERO (VOANDO SEM ASAS) (BY GILMAR SINISTRO)
EXTD=
EXTT0=
EXTT1=
EXTT2=
EXTT3=
EXTT4=
EXTT5=
EXTT6=
EXTT7=
EXTT8=
EXTT9=
EXTT10=
EXTT11=
PLAYORDER=
